{
    "asset" : {
        "generator" : "Khronos glTF Blender I/O v3.4.49",
        "version" : "2.0"
    },
    "extensionsUsed" : [
        "KHR_materials_specular",
        "KHR_materials_ior"
    ],
    "scene" : 0,
    "scenes" : [
        {
            "name" : "Scene",
            "nodes" : [
                4
            ]
        }
    ],
    "nodes" : [
        {
            "mesh" : 0,
            "name" : "calathea Leaves",
            "rotation" : [
                0,
                -0.19665850698947906,
                0,
                0.9804720878601074
            ],
            "translation" : [
                -0.013501718640327454,
                0.1857631802558899,
                -0.0004329085350036621
            ]
        },
        {
            "mesh" : 1,
            "name" : "Ceramic pot",
            "translation" : [
                0,
                0.11138966679573059,
                0
            ]
        },
        {
            "mesh" : 2,
            "name" : "Plastic pot",
            "translation" : [
                0.000623926694970578,
                0.19017161428928375,
                0.00039207935333251953
            ]
        },
        {
            "mesh" : 3,
            "name" : "Soil",
            "translation" : [
                -0.0008296083542518318,
                0.18662236630916595,
                -0.0016592144966125488
            ]
        },
        {
            "children" : [
                0,
                1,
                2,
                3
            ],
            "name" : "Calathea plant"
        }
    ],
    "materials" : [
        {
            "alphaCutoff" : 0.5,
            "alphaMode" : "MASK",
            "doubleSided" : true,
            "extensions" : {
                "KHR_materials_specular" : {
                    "specularColorFactor" : [
                        1.32796026974094,
                        1.32796026974094,
                        1.32796026974094
                    ]
                },
                "KHR_materials_ior" : {
                    "ior" : 1.4500000476837158
                }
            },
            "name" : "calathea_orbifolia_01",
            "normalTexture" : {
                "index" : 0
            },
            "pbrMetallicRoughness" : {
                "baseColorTexture" : {
                    "index" : 1
                },
                "metallicFactor" : 0,
                "metallicRoughnessTexture" : {
                    "index" : 2
                }
            }
        },
        {
            "doubleSided" : true,
            "name" : "Ceramic Glazed",
            "pbrMetallicRoughness" : {}
        },
        {
            "doubleSided" : true,
            "extensions" : {
                "KHR_materials_specular" : {
                    "specularColorFactor" : [
                        0.6467338434498618,
                        0.6467338434498618,
                        0.6467338434498618
                    ]
                },
                "KHR_materials_ior" : {
                    "ior" : 1.4500000476837158
                }
            },
            "name" : "Plastic",
            "pbrMetallicRoughness" : {
                "baseColorFactor" : [
                    0.16794869303703308,
                    0.05724596977233887,
                    0.031311970204114914,
                    1
                ],
                "metallicFactor" : 0
            }
        },
        {
            "doubleSided" : true,
            "name" : "Procedural Dirt",
            "pbrMetallicRoughness" : {
                "metallicFactor" : 0
            }
        }
    ],
    "meshes" : [
        {
            "name" : "Plane.014",
            "primitives" : [
                {
                    "attributes" : {
                        "COLOR_0" : 0,
                        "POSITION" : 1,
                        "TEXCOORD_0" : 2,
                        "NORMAL" : 3
                    },
                    "indices" : 4,
                    "material" : 0
                }
            ]
        },
        {
            "name" : "Cylinder.002",
            "primitives" : [
                {
                    "attributes" : {
                        "POSITION" : 5,
                        "TEXCOORD_0" : 6,
                        "TEXCOORD_1" : 7,
                        "NORMAL" : 8
                    },
                    "indices" : 9,
                    "material" : 1
                }
            ]
        },
        {
            "name" : "Cylinder",
            "primitives" : [
                {
                    "attributes" : {
                        "POSITION" : 10,
                        "TEXCOORD_0" : 11,
                        "TEXCOORD_1" : 12,
                        "NORMAL" : 13
                    },
                    "indices" : 14,
                    "material" : 2
                }
            ]
        },
        {
            "name" : "Circle.006",
            "primitives" : [
                {
                    "attributes" : {
                        "COLOR_0" : 15,
                        "POSITION" : 16,
                        "TEXCOORD_0" : 17,
                        "TEXCOORD_1" : 18,
                        "NORMAL" : 19
                    },
                    "indices" : 20,
                    "material" : 3
                }
            ]
        }
    ],
    "textures" : [
        {
            "sampler" : 0,
            "source" : 0
        },
        {
            "sampler" : 0,
            "source" : 1
        },
        {
            "sampler" : 0,
            "source" : 2
        }
    ],
    "images" : [
        {
            "bufferView" : 5,
            "mimeType" : "image/png",
            "name" : "calathea_orbifolia_01_nor_gl"
        },
        {
            "bufferView" : 6,
            "mimeType" : "image/jpeg",
            "name" : "calathea_orbifolia_01_diff_1k"
        },
        {
            "bufferView" : 7,
            "mimeType" : "image/png",
            "name" : "calathea_orbifolia_01_rough"
        }
    ],
    "accessors" : [
        {
            "bufferView" : 0,
            "componentType" : 5123,
            "count" : 1530,
            "normalized" : true,
            "type" : "VEC4"
        },
        {
            "bufferView" : 1,
            "componentType" : 5126,
            "count" : 1530,
            "max" : [
                0.2649363875389099,
                0.3561091423034668,
                0.23213814198970795
            ],
            "min" : [
                -0.23444263637065887,
                -0.016963889822363853,
                -0.3180370628833771
            ],
            "type" : "VEC3"
        },
        {
            "bufferView" : 2,
            "componentType" : 5126,
            "count" : 1530,
            "type" : "VEC2"
        },
        {
            "bufferView" : 3,
            "componentType" : 5126,
            "count" : 1530,
            "type" : "VEC3"
        },
        {
            "bufferView" : 4,
            "componentType" : 5123,
            "count" : 6993,
            "type" : "SCALAR"
        },
        {
            "bufferView" : 8,
            "componentType" : 5126,
            "count" : 1348,
            "max" : [
                0.10769622027873993,
                0.0849451869726181,
                0.10769624263048172
            ],
            "min" : [
                -0.10769622027873993,
                -0.11205901205539703,
                -0.10769622027873993
            ],
            "type" : "VEC3"
        },
        {
            "bufferView" : 9,
            "componentType" : 5126,
            "count" : 1348,
            "type" : "VEC2"
        },
        {
            "bufferView" : 10,
            "componentType" : 5126,
            "count" : 1348,
            "type" : "VEC2"
        },
        {
            "bufferView" : 11,
            "componentType" : 5126,
            "count" : 1348,
            "type" : "VEC3"
        },
        {
            "bufferView" : 12,
            "componentType" : 5123,
            "count" : 4020,
            "type" : "SCALAR"
        },
        {
            "bufferView" : 13,
            "componentType" : 5126,
            "count" : 1006,
            "max" : [
                0.06965336948633194,
                0.0017892475007101893,
                0.06965337693691254
            ],
            "min" : [
                -0.06965337693691254,
                -0.0702143982052803,
                -0.06965337693691254
            ],
            "type" : "VEC3"
        },
        {
            "bufferView" : 14,
            "componentType" : 5126,
            "count" : 1006,
            "type" : "VEC2"
        },
        {
            "bufferView" : 15,
            "componentType" : 5126,
            "count" : 1006,
            "type" : "VEC2"
        },
        {
            "bufferView" : 16,
            "componentType" : 5126,
            "count" : 1006,
            "type" : "VEC3"
        },
        {
            "bufferView" : 17,
            "componentType" : 5123,
            "count" : 3828,
            "type" : "SCALAR"
        },
        {
            "bufferView" : 18,
            "componentType" : 5123,
            "count" : 595,
            "normalized" : true,
            "type" : "VEC4"
        },
        {
            "bufferView" : 19,
            "componentType" : 5126,
            "count" : 595,
            "max" : [
                0.06727813929319382,
                0.012848910875618458,
                0.06823299080133438
            ],
            "min" : [
                -0.06358859688043594,
                -0.012376705184578896,
                -0.06274662166833878
            ],
            "type" : "VEC3"
        },
        {
            "bufferView" : 20,
            "componentType" : 5126,
            "count" : 595,
            "type" : "VEC2"
        },
        {
            "bufferView" : 21,
            "componentType" : 5126,
            "count" : 595,
            "type" : "VEC2"
        },
        {
            "bufferView" : 22,
            "componentType" : 5126,
            "count" : 595,
            "type" : "VEC3"
        },
        {
            "bufferView" : 23,
            "componentType" : 5123,
            "count" : 3072,
            "type" : "SCALAR"
        }
    ],
    "bufferViews" : [
        {
            "buffer" : 0,
            "byteLength" : 12240,
            "byteOffset" : 0,
            "target" : 34962
        },
        {
            "buffer" : 0,
            "byteLength" : 18360,
            "byteOffset" : 12240,
            "target" : 34962
        },
        {
            "buffer" : 0,
            "byteLength" : 12240,
            "byteOffset" : 30600,
            "target" : 34962
        },
        {
            "buffer" : 0,
            "byteLength" : 18360,
            "byteOffset" : 42840,
            "target" : 34962
        },
        {
            "buffer" : 0,
            "byteLength" : 13986,
            "byteOffset" : 61200,
            "target" : 34963
        },
        {
            "buffer" : 0,
            "byteLength" : 981153,
            "byteOffset" : 75188
        },
        {
            "buffer" : 0,
            "byteLength" : 48230,
            "byteOffset" : 1056344
        },
        {
            "buffer" : 0,
            "byteLength" : 190490,
            "byteOffset" : 1104576
        },
        {
            "buffer" : 0,
            "byteLength" : 16176,
            "byteOffset" : 1295068,
            "target" : 34962
        },
        {
            "buffer" : 0,
            "byteLength" : 10784,
            "byteOffset" : 1311244,
            "target" : 34962
        },
        {
            "buffer" : 0,
            "byteLength" : 10784,
            "byteOffset" : 1322028,
            "target" : 34962
        },
        {
            "buffer" : 0,
            "byteLength" : 16176,
            "byteOffset" : 1332812,
            "target" : 34962
        },
        {
            "buffer" : 0,
            "byteLength" : 8040,
            "byteOffset" : 1348988,
            "target" : 34963
        },
        {
            "buffer" : 0,
            "byteLength" : 12072,
            "byteOffset" : 1357028,
            "target" : 34962
        },
        {
            "buffer" : 0,
            "byteLength" : 8048,
            "byteOffset" : 1369100,
            "target" : 34962
        },
        {
            "buffer" : 0,
            "byteLength" : 8048,
            "byteOffset" : 1377148,
            "target" : 34962
        },
        {
            "buffer" : 0,
            "byteLength" : 12072,
            "byteOffset" : 1385196,
            "target" : 34962
        },
        {
            "buffer" : 0,
            "byteLength" : 7656,
            "byteOffset" : 1397268,
            "target" : 34963
        },
        {
            "buffer" : 0,
            "byteLength" : 4760,
            "byteOffset" : 1404924,
            "target" : 34962
        },
        {
            "buffer" : 0,
            "byteLength" : 7140,
            "byteOffset" : 1409684,
            "target" : 34962
        },
        {
            "buffer" : 0,
            "byteLength" : 4760,
            "byteOffset" : 1416824,
            "target" : 34962
        },
        {
            "buffer" : 0,
            "byteLength" : 4760,
            "byteOffset" : 1421584,
            "target" : 34962
        },
        {
            "buffer" : 0,
            "byteLength" : 7140,
            "byteOffset" : 1426344,
            "target" : 34962
        },
        {
            "buffer" : 0,
            "byteLength" : 6144,
            "byteOffset" : 1433484,
            "target" : 34963
        }
    ],
    "samplers" : [
        {
            "magFilter" : 9729,
            "minFilter" : 9987
        }
    ],
    "buffers" : [
        {
            "byteLength" : 1439628,
            "uri" : "data:application/octet-stream;base64,"
        }
    ]
}
