{
    "asset" : {
        "generator" : "Khronos glTF Blender I/O v3.4.49",
        "version" : "2.0"
    },
    "extensionsUsed" : [
        "KHR_materials_transmission",
        "KHR_materials_ior"
    ],
    "scene" : 0,
    "scenes" : [
        {
            "name" : "Scene",
            "nodes" : [
                3,
                7,
                8,
                9,
                10,
                11,
                12,
                13
            ]
        }
    ],
    "nodes" : [
        {
            "mesh" : 0,
            "name" : "door frame",
            "translation" : [
                0,
                -1.5501022338867188,
                -0.053463853895664215
            ]
        },
        {
            "mesh" : 1,
            "name" : "top mirror",
            "translation" : [
                0,
                0.9450693130493164,
                -0.03213564306497574
            ]
        },
        {
            "mesh" : 2,
            "name" : "bottom mirro",
            "translation" : [
                0,
                -0.8460211753845215,
                -0.03213564306497574
            ]
        },
        {
            "children" : [
                0,
                1,
                2
            ],
            "name" : "Main Door",
            "translation" : [
                1.9733062982559204,
                0,
                0
            ]
        },
        {
            "mesh" : 3,
            "name" : "door frame.001",
            "translation" : [
                -2.113931655883789,
                -1.5501022338867188,
                -0.004446633160114288
            ]
        },
        {
            "mesh" : 4,
            "name" : "top mirror.001",
            "translation" : [
                -2.1139326095581055,
                0.9450693130493164,
                -0.018518980592489243
            ]
        },
        {
            "mesh" : 5,
            "name" : "bottom mirro.001",
            "translation" : [
                -2.1139326095581055,
                -0.8460211753845215,
                -0.018518980592489243
            ]
        },
        {
            "children" : [
                4,
                5,
                6
            ],
            "name" : "Side Door",
            "translation" : [
                6.1920976638793945,
                0,
                0
            ]
        },
        {
            "mesh" : 0,
            "name" : "door frame",
            "translation" : [
                0,
                -1.5501022338867188,
                -0.053463853895664215
            ]
        },
        {
            "mesh" : 1,
            "name" : "top mirror",
            "translation" : [
                0,
                0.9450693130493164,
                -0.03213564306497574
            ]
        },
        {
            "mesh" : 2,
            "name" : "bottom mirro",
            "translation" : [
                0,
                -0.8460211753845215,
                -0.03213564306497574
            ]
        },
        {
            "mesh" : 3,
            "name" : "door frame.001",
            "translation" : [
                -2.11393141746521,
                -1.5501022338867188,
                -0.004446633160114288
            ]
        },
        {
            "mesh" : 4,
            "name" : "top mirror.001",
            "translation" : [
                -2.1139326095581055,
                0.9450693130493164,
                -0.018518980592489243
            ]
        },
        {
            "mesh" : 5,
            "name" : "bottom mirro.001",
            "translation" : [
                -2.1139326095581055,
                -0.8460211753845215,
                -0.018518980592489243
            ]
        }
    ],
    "materials" : [
        {
            "doubleSided" : true,
            "name" : "steel door",
            "pbrMetallicRoughness" : {
                "baseColorFactor" : [
                    0.06347554177045822,
                    0.03758023679256439,
                    0.013785562478005886,
                    1
                ],
                "metallicFactor" : 0.8681818246841431,
                "roughnessFactor" : 0.2454545497894287
            }
        },
        {
            "doubleSided" : true,
            "extensions" : {
                "KHR_materials_transmission" : {
                    "transmissionFactor" : 1
                },
                "KHR_materials_ior" : {
                    "ior" : 1.4500000476837158
                }
            },
            "name" : "glass",
            "pbrMetallicRoughness" : {
                "metallicFactor" : 0,
                "roughnessFactor" : 0.03181818127632141
            }
        }
    ],
    "meshes" : [
        {
            "name" : "Plane.001",
            "primitives" : [
                {
                    "attributes" : {
                        "POSITION" : 0,
                        "TEXCOORD_0" : 1,
                        "NORMAL" : 2
                    },
                    "indices" : 3,
                    "material" : 0
                }
            ]
        },
        {
            "name" : "Plane.002",
            "primitives" : [
                {
                    "attributes" : {
                        "POSITION" : 4,
                        "TEXCOORD_0" : 5,
                        "NORMAL" : 6
                    },
                    "indices" : 7,
                    "material" : 1
                }
            ]
        },
        {
            "name" : "Plane.003",
            "primitives" : [
                {
                    "attributes" : {
                        "POSITION" : 8,
                        "TEXCOORD_0" : 9,
                        "NORMAL" : 10
                    },
                    "indices" : 7,
                    "material" : 1
                }
            ]
        },
        {
            "name" : "Plane.004",
            "primitives" : [
                {
                    "attributes" : {
                        "POSITION" : 11,
                        "TEXCOORD_0" : 12,
                        "NORMAL" : 13
                    },
                    "indices" : 14,
                    "material" : 0
                }
            ]
        },
        {
            "name" : "Plane.005",
            "primitives" : [
                {
                    "attributes" : {
                        "POSITION" : 15,
                        "TEXCOORD_0" : 16,
                        "NORMAL" : 17
                    },
                    "indices" : 7,
                    "material" : 1
                }
            ]
        },
        {
            "name" : "Plane.006",
            "primitives" : [
                {
                    "attributes" : {
                        "POSITION" : 18,
                        "TEXCOORD_0" : 19,
                        "NORMAL" : 20
                    },
                    "indices" : 7,
                    "material" : 1
                }
            ]
        }
    ],
    "accessors" : [
        {
            "bufferView" : 0,
            "componentType" : 5126,
            "count" : 1312,
            "max" : [
                1,
                3.8603668212890625,
                0.05034046620130539
            ],
            "min" : [
                -1,
                -0.760162353515625,
                -0.043412744998931885
            ],
            "type" : "VEC3"
        },
        {
            "bufferView" : 1,
            "componentType" : 5126,
            "count" : 1312,
            "type" : "VEC2"
        },
        {
            "bufferView" : 2,
            "componentType" : 5126,
            "count" : 1312,
            "type" : "VEC3"
        },
        {
            "bufferView" : 3,
            "componentType" : 5123,
            "count" : 2100,
            "type" : "SCALAR"
        },
        {
            "bufferView" : 4,
            "componentType" : 5126,
            "count" : 4,
            "max" : [
                0.880027711391449,
                1.2857856750488281,
                4.470348358154297e-08
            ],
            "min" : [
                -0.880027711391449,
                -1.2857856750488281,
                -4.470348358154297e-08
            ],
            "type" : "VEC3"
        },
        {
            "bufferView" : 5,
            "componentType" : 5126,
            "count" : 4,
            "type" : "VEC2"
        },
        {
            "bufferView" : 6,
            "componentType" : 5126,
            "count" : 4,
            "type" : "VEC3"
        },
        {
            "bufferView" : 7,
            "componentType" : 5123,
            "count" : 6,
            "type" : "SCALAR"
        },
        {
            "bufferView" : 8,
            "componentType" : 5126,
            "count" : 4,
            "max" : [
                0.880027711391449,
                0.41624295711517334,
                4.470348358154297e-08
            ],
            "min" : [
                -0.880027711391449,
                -0.4162430763244629,
                -4.470348358154297e-08
            ],
            "type" : "VEC3"
        },
        {
            "bufferView" : 9,
            "componentType" : 5126,
            "count" : 4,
            "type" : "VEC2"
        },
        {
            "bufferView" : 10,
            "componentType" : 5126,
            "count" : 4,
            "type" : "VEC3"
        },
        {
            "bufferView" : 11,
            "componentType" : 5126,
            "count" : 1312,
            "max" : [
                1.1283849477767944,
                3.8603668212890625,
                0.05034046620130539
            ],
            "min" : [
                -1.128387212753296,
                -0.760162353515625,
                -0.043412744998931885
            ],
            "type" : "VEC3"
        },
        {
            "bufferView" : 12,
            "componentType" : 5126,
            "count" : 1312,
            "type" : "VEC2"
        },
        {
            "bufferView" : 13,
            "componentType" : 5126,
            "count" : 1312,
            "type" : "VEC3"
        },
        {
            "bufferView" : 14,
            "componentType" : 5123,
            "count" : 2100,
            "type" : "SCALAR"
        },
        {
            "bufferView" : 15,
            "componentType" : 5126,
            "count" : 4,
            "max" : [
                0.9930109977722168,
                1.2857856750488281,
                4.470348358154297e-08
            ],
            "min" : [
                -0.9930109977722168,
                -1.2857856750488281,
                -4.470348358154297e-08
            ],
            "type" : "VEC3"
        },
        {
            "bufferView" : 16,
            "componentType" : 5126,
            "count" : 4,
            "type" : "VEC2"
        },
        {
            "bufferView" : 17,
            "componentType" : 5126,
            "count" : 4,
            "type" : "VEC3"
        },
        {
            "bufferView" : 18,
            "componentType" : 5126,
            "count" : 4,
            "max" : [
                0.9930109977722168,
                0.41624295711517334,
                4.470348358154297e-08
            ],
            "min" : [
                -0.9930109977722168,
                -0.4162430763244629,
                -4.470348358154297e-08
            ],
            "type" : "VEC3"
        },
        {
            "bufferView" : 19,
            "componentType" : 5126,
            "count" : 4,
            "type" : "VEC2"
        },
        {
            "bufferView" : 20,
            "componentType" : 5126,
            "count" : 4,
            "type" : "VEC3"
        }
    ],
    "bufferViews" : [
        {
            "buffer" : 0,
            "byteLength" : 15744,
            "byteOffset" : 0,
            "target" : 34962
        },
        {
            "buffer" : 0,
            "byteLength" : 10496,
            "byteOffset" : 15744,
            "target" : 34962
        },
        {
            "buffer" : 0,
            "byteLength" : 15744,
            "byteOffset" : 26240,
            "target" : 34962
        },
        {
            "buffer" : 0,
            "byteLength" : 4200,
            "byteOffset" : 41984,
            "target" : 34963
        },
        {
            "buffer" : 0,
            "byteLength" : 48,
            "byteOffset" : 46184,
            "target" : 34962
        },
        {
            "buffer" : 0,
            "byteLength" : 32,
            "byteOffset" : 46232,
            "target" : 34962
        },
        {
            "buffer" : 0,
            "byteLength" : 48,
            "byteOffset" : 46264,
            "target" : 34962
        },
        {
            "buffer" : 0,
            "byteLength" : 12,
            "byteOffset" : 46312,
            "target" : 34963
        },
        {
            "buffer" : 0,
            "byteLength" : 48,
            "byteOffset" : 46324,
            "target" : 34962
        },
        {
            "buffer" : 0,
            "byteLength" : 32,
            "byteOffset" : 46372,
            "target" : 34962
        },
        {
            "buffer" : 0,
            "byteLength" : 48,
            "byteOffset" : 46404,
            "target" : 34962
        },
        {
            "buffer" : 0,
            "byteLength" : 15744,
            "byteOffset" : 46452,
            "target" : 34962
        },
        {
            "buffer" : 0,
            "byteLength" : 10496,
            "byteOffset" : 62196,
            "target" : 34962
        },
        {
            "buffer" : 0,
            "byteLength" : 15744,
            "byteOffset" : 72692,
            "target" : 34962
        },
        {
            "buffer" : 0,
            "byteLength" : 4200,
            "byteOffset" : 88436,
            "target" : 34963
        },
        {
            "buffer" : 0,
            "byteLength" : 48,
            "byteOffset" : 92636,
            "target" : 34962
        },
        {
            "buffer" : 0,
            "byteLength" : 32,
            "byteOffset" : 92684,
            "target" : 34962
        },
        {
            "buffer" : 0,
            "byteLength" : 48,
            "byteOffset" : 92716,
            "target" : 34962
        },
        {
            "buffer" : 0,
            "byteLength" : 48,
            "byteOffset" : 92764,
            "target" : 34962
        },
        {
            "buffer" : 0,
            "byteLength" : 32,
            "byteOffset" : 92812,
            "target" : 34962
        },
        {
            "buffer" : 0,
            "byteLength" : 48,
            "byteOffset" : 92844,
            "target" : 34962
        }
    ],
    "buffers" : [
        {
            "byteLength" : 92892,
            "uri" : "data:application/octet-stream;base64,"
        }
    ]
}
